<?xml version="1.0" encoding="UTF-8"?>
<!DOCTYPE svg PUBLIC "-//W3C//DTD SVG 1.1//EN" "http://www.w3.org/Graphics/SVG/1.1/DTD/svg11.dtd">
<!-- Creator: CorelDRAW 2019 (64-Bit) -->
<svg xmlns="http://www.w3.org/2000/svg" xml:space="preserve" width="2.12431in" height="2.12809in" version="1.1" style="shape-rendering:geometricPrecision; text-rendering:geometricPrecision; image-rendering:optimizeQuality; fill-rule:evenodd; clip-rule:evenodd"
viewBox="0 0 2124.31 2128.08"
 xmlns:xlink="http://www.w3.org/1999/xlink"
 xmlns:xodm="http://www.corel.com/coreldraw/odm/2003">
 <defs>
  <style type="text/css">
   <![CDATA[
    .fil0 {fill:black}
    .fil1 {fill:#E1AC00}
    .fil2 {fill:white}
    .fil3 {fill:white;fill-rule:nonzero}
   ]]>
  </style>
 </defs>
 <g id="Layer_x0020_1">
  <metadata id="CorelCorpID_0Corel-Layer"/>
  <g id="_1800827012656">
   <path class="fil0" d="M1062.49 0.01c586.43,0 1061.82,476.38 1061.82,1064.03 0,587.65 -475.39,1064.04 -1061.82,1064.04 -586.42,0 -1061.81,-476.38 -1061.81,-1064.04 0,-587.65 475.39,-1064.03 1061.81,-1064.03z"/>
   <path class="fil1" d="M487.27 1752.23c-122.98,-102.04 -274.23,-291.4 -308.66,-524.95l0.61 0c-1.15,-6.2 -2.24,-12.43 -3.26,-18.67 -0.25,-0.7 -0.52,-1.49 -0.84,-2.39l-4.27 -23.55c-79.39,-676.34 546.96,-1146.67 1129.3,-974.87 18.15,5.35 36.18,12.21 53.55,18.8 7.23,2.58 14.4,5.26 21.53,8.03 11.61,4.2 22.8,7.91 33.4,10.54l-2.16 2.28c3.58,1.55 7.14,3.13 10.7,4.72 122.96,37.65 283.25,185.18 360.15,291.94 43.04,59.74 85.62,134.37 113.44,213.69 14.76,42.08 19.11,47.66 85.95,77.26 38.9,17.2 82.71,28.96 130.5,33.73 -12.29,-114.89 -87.67,-280.68 -138.89,-361.32 -49.61,-78.13 -104.53,-149.72 -168.96,-208.14 -11.2,-10.16 -20.04,-21.58 -31.8,-31.6 -102.36,-87.14 -214.57,-157.2 -359.18,-208.71 -644.79,-229.66 -1393.46,234.07 -1408.21,991.75 -3.96,203.82 59.26,422.94 164.91,583.17 167.66,254.26 419.2,441.05 775.96,486.52 304.39,38.79 604.75,-75.94 776.4,-218.35 94.75,-78.61 173.63,-157.22 240.45,-263.8 62.48,-99.67 122.53,-221.11 146.45,-361.85 -64.25,3.91 -113.8,19.42 -163.72,44.76 -61.44,31.21 -27.74,9.51 -81.94,127.25 -44.94,97.64 -114.22,185.05 -172.89,244.97 -318.15,324.99 -847.2,350.29 -1198.53,58.8z"/>
   <path class="fil2" d="M794.23 896.11c25.77,11.46 67.96,60.61 87.48,81.9 27.33,29.85 56.89,58.22 85.94,86.85 41.04,40.45 125.82,131.48 171.89,168.7 15.15,12.24 8.38,9.52 31.44,10.24l300.23 0.34c97.05,0.19 252.65,8.85 343.33,-4.48l-379.84 -48.86c-11,-27.87 -1.36,-917.34 -1.15,-924.83 0.88,0.26 1.75,0.53 2.64,0.79 -3.56,-1.59 -7.12,-3.15 -10.7,-4.7l-13 13.72c-40.92,35.35 -50.05,53.59 -86.73,94.72 -38.43,43.07 -256.59,305.6 -299.75,328.47 -22.68,-13.49 -63.33,-58.36 -80.9,-79.65 -18.76,-22.7 -55.07,-61.69 -81.51,-75.68 -11.01,129.79 -8.93,131.13 48.48,194.96 39.13,43.5 72.2,87.05 116.66,120.26 16.94,-9.69 59.36,-55.41 72.8,-72.22l99.46 -114.03c24.26,-27.91 77.11,-88.36 105.76,-101.7 3.23,37.77 10.18,549.05 2.76,601.31 -79.57,-9.33 -110.35,-67.59 -175.12,-133.42 -35.33,-35.89 -452.38,-458.93 -472.4,-467.41 -13.39,153.6 16.41,452.97 -4.74,599.12l-458.03 61.29c-2.29,-3.92 -1.47,-0.63 -4.26,-8.59 1.03,6.25 2.11,12.47 3.26,18.68l464.35 2.39c10.84,-9.73 19.93,-21.76 29.21,-31.46 12.51,-13.04 19.32,-16.49 31.56,-27.54l64.54 -53.54c14.09,-17.68 6.54,-199.74 6.34,-235.64z"/>
   <path class="fil3" d="M425.85 1411.07l0 -89.05c-6.14,5.49 -10.62,11.15 -13.45,16.98 -2.61,6.01 -4.02,14.24 -4.02,24.89l0 6.52 0 40.67 -35.42 0 0 -47.18c0,-10.64 -1.42,-18.88 -4.02,-24.89 -2.84,-5.83 -7.33,-11.49 -13.46,-16.98l0 89.05 -35.67 0 0 -117.2 47.48 0c4.95,3.95 9.45,8.58 13.22,13.9 4.02,5.15 7.33,10.99 10.16,17.16 2.6,-6 5.91,-11.84 9.92,-16.98 4.02,-5.32 8.5,-9.95 13.47,-14.07l47.46 0 0 117.2 -35.66 0zm89.52 -41.35l17.48 0c-0.24,-11.15 -0.94,-21.1 -2.61,-29.68 -1.41,-8.58 -3.54,-15.96 -6.14,-21.96 -2.59,6 -4.72,13.38 -6.14,21.96 -1.42,8.58 -2.36,18.53 -2.6,29.68zm-35.43 41.35l0 -22.99c0,-22.13 2.36,-40.67 6.85,-55.6 4.49,-15.1 11.58,-27.96 21.49,-38.61l31.89 0c9.67,10.81 17,23.68 21.49,38.78 4.48,14.93 6.85,33.46 6.85,55.42l0 22.99 -35.66 0 0 -19.39 -17.48 0 0 19.39 -35.43 0zm141.46 -72.75l5.91 0c5.43,0 9.21,-0.86 10.86,-2.41 1.9,-1.72 2.84,-4.97 2.84,-9.95 0,-4.11 -0.94,-7.03 -2.84,-8.92 -1.89,-1.72 -5.19,-2.57 -9.68,-2.57l-7.09 0 0 23.85zm-34.48 -44.44l47.71 0c15.36,0 25.98,2.57 32.36,7.89 6.14,5.15 9.2,14.24 9.2,27.46 0,6.18 -0.94,11.32 -2.83,15.44 -2.12,4.12 -4.96,6.87 -8.73,8.24l13.23 58.17 -37.32 0 -9.21 -52.85 -8.74 0 0 52.85 -35.67 0 0 -117.2zm160.85 38.09l0 -6.69c0,-3.61 -0.94,-6.35 -2.59,-8.07 -1.9,-1.72 -4.49,-2.57 -8.27,-2.57 -2.83,0 -4.96,0.51 -6.61,1.72 -1.65,1.2 -2.6,2.74 -2.6,4.63 0,3.6 8.5,10.46 25.5,20.25 3.31,1.89 5.91,3.26 7.56,4.28 7.32,4.12 12.75,8.93 16.07,13.91 3.07,5.14 4.72,11.49 4.72,19.22 0,11.32 -3.78,19.91 -11.1,25.57 -7.56,5.49 -18.65,8.41 -33.78,8.41 -15.58,0 -26.92,-2.75 -34.24,-8.24 -7.33,-5.32 -10.87,-14.07 -10.87,-25.74l0 -14.24 36.14 0 0 13.04c0,4.64 0.7,7.89 2.36,9.95 1.42,2.06 3.78,3.09 7.08,3.09 2.59,0 4.72,-0.86 6.38,-2.4 1.41,-1.37 2.12,-3.6 2.12,-6.35 0,-3.78 -1.18,-7.21 -3.3,-10.3 -2.36,-2.91 -7.09,-6.69 -14.41,-11.32 -1.19,-0.86 -3.07,-1.89 -5.44,-3.43 -20.54,-12.53 -30.7,-24.2 -30.7,-35.01 0,-9.44 3.78,-16.81 11.57,-21.79 7.8,-5.15 18.66,-7.72 33.07,-7.72 15.82,0 26.93,2.41 33.78,7.38 6.85,4.81 10.15,13.22 10.15,24.89l0 7.55 -32.59 0zm52.91 -38.09l35.66 0 0 41.87 16.54 0 0 -41.87 35.66 0 0 117.2 -35.66 0 0 -53.88 -16.54 0 0 53.88 -35.66 0 0 -117.2zm141.7 75.84l17.48 0c-0.24,-11.15 -0.95,-21.1 -2.61,-29.68 -1.41,-8.58 -3.54,-15.96 -6.14,-21.96 -2.59,6 -4.72,13.38 -6.14,21.96 -1.42,8.58 -2.36,18.53 -2.6,29.68zm-35.42 41.35l0 -22.99c0,-22.13 2.36,-40.67 6.85,-55.6 4.49,-15.1 11.57,-27.96 21.49,-38.61l31.89 0c9.69,10.81 17.01,23.68 21.5,38.78 4.48,14.93 6.85,33.46 6.85,55.42l0 22.99 -35.66 0 0 -19.39 -17.48 0 0 19.39 -35.42 0zm157.28 -79.45c0,-14.41 3.54,-24.71 10.4,-30.54 6.84,-5.83 18.18,-8.76 34.48,-8.76 16.29,0 27.87,2.92 34.71,8.76 6.86,5.83 10.16,16.13 10.16,30.54l0 8.41 -36.13 0 0 -14.42c0,-4.8 -0.71,-7.72 -1.89,-9.09 -1.19,-1.2 -3.55,-1.89 -6.85,-1.89 -3.31,0 -5.68,0.51 -6.86,1.72 -1.18,1.2 -1.89,3.94 -1.89,8.41l0 3.43 0 52c0,4.46 0.71,7.2 1.89,8.41 1.18,1.2 3.54,1.89 6.86,1.89 3.3,0 5.66,-0.69 6.85,-1.89 1.18,-1.37 1.89,-4.46 1.89,-9.26l0 -2.57 0 -17.67 36.13 0 0 14.24c0,14.41 -3.3,24.54 -10.16,30.54 -6.84,5.84 -18.42,8.76 -34.71,8.76 -16.3,0 -27.64,-2.92 -34.48,-8.76 -6.85,-6 -10.4,-16.13 -10.4,-30.54l0 -41.7zm142.65 6.7l5.91 0c5.43,0 9.21,-0.86 10.86,-2.41 1.9,-1.72 2.84,-4.97 2.84,-9.95 0,-4.11 -0.94,-7.03 -2.84,-8.92 -1.89,-1.72 -5.19,-2.57 -9.68,-2.57l-7.09 0 0 23.85zm-34.48 -44.44l47.71 0c15.36,0 25.98,2.57 32.36,7.89 6.14,5.15 9.2,14.24 9.2,27.46 0,6.18 -0.94,11.32 -2.83,15.44 -2.12,4.12 -4.96,6.87 -8.73,8.24l13.23 58.17 -37.32 0 -9.21 -52.85 -8.74 0 0 52.85 -35.67 0 0 -117.2zm107.46 117.2l0 -117.2 72.75 0 0 22.31 -37.08 0 0 19.91 35.66 0 0 22.13 -35.66 0 0 30.54 38.73 0 0 22.31 -74.4 0zm123.53 -41.35l17.48 0c-0.24,-11.15 -0.94,-21.1 -2.6,-29.68 -1.41,-8.58 -3.54,-15.96 -6.14,-21.96 -2.6,6 -4.73,13.38 -6.14,21.96 -1.43,8.58 -2.37,18.53 -2.61,29.68zm-35.43 41.35l0 -22.99c0,-22.13 2.36,-40.67 6.85,-55.6 4.49,-15.1 11.58,-27.96 21.49,-38.61l31.89 0c9.68,10.81 17,23.68 21.49,38.78 4.48,14.93 6.85,33.46 6.85,55.42l0 22.99 -35.66 0 0 -19.39 -17.48 0 0 19.39 -35.43 0z"/>
   <path class="fil3" d="M1461.68 1315.33l0 -21.45 77.23 0 0 21.45 -20.79 0 0 95.74 -35.66 0 0 -95.74 -20.78 0zm91.87 -21.45l35.66 0 0 117.2 -35.66 0 0 -117.2zm89.28 0l0 33.63c0,17.33 0.7,30.2 2.11,38.78 1.43,8.58 3.55,16.13 6.63,22.31 3.07,-6.35 5.43,-13.73 6.84,-22.31 1.18,-8.57 1.89,-21.44 1.89,-38.78l0 -33.63 35.43 0 0 35.35c0,20.07 -1.89,36.38 -5.91,48.73 -4.01,12.53 -10.39,23.51 -19.37,33.12l-38.02 0c-8.98,-9.61 -15.35,-20.59 -19.36,-33.12 -4.02,-12.35 -5.91,-28.65 -5.91,-48.73l0 -35.35 35.67 0zm69.9 117.2l0 -117.2 72.74 0 0 22.31 -37.08 0 0 19.91 35.67 0 0 22.13 -35.67 0 0 30.54 38.73 0 0 22.31 -74.39 0z"/>
   <path class="fil3" d="M777.45 1490.73l0 -3.74c0,-2.02 -0.65,-3.55 -1.79,-4.51 -1.3,-0.96 -3.1,-1.44 -5.7,-1.44 -1.96,0 -3.42,0.29 -4.56,0.96 -1.15,0.67 -1.79,1.54 -1.79,2.59 0,2.02 5.86,5.85 17.59,11.33 2.28,1.06 4.06,1.82 5.2,2.4 5.06,2.3 8.79,5 11.07,7.78 2.12,2.88 3.26,6.43 3.26,10.75 0,6.34 -2.61,11.14 -7.66,14.31 -5.21,3.07 -12.86,4.7 -23.28,4.7 -10.74,0 -18.56,-1.54 -23.6,-4.61 -5.06,-2.98 -7.5,-7.87 -7.5,-14.41l0 -7.96 24.92 0 0 7.3c0,2.59 0.49,4.41 1.62,5.57 0.98,1.15 2.61,1.73 4.89,1.73 1.8,0 3.26,-0.48 4.39,-1.34 0.98,-0.77 1.47,-2.02 1.47,-3.56 0,-2.11 -0.81,-4.03 -2.28,-5.76 -1.63,-1.63 -4.89,-3.75 -9.94,-6.34 -0.81,-0.48 -2.11,-1.06 -3.74,-1.92 -14.17,-7.01 -21.17,-13.54 -21.17,-19.59 0,-5.28 2.6,-9.41 7.97,-12.2 5.37,-2.88 12.87,-4.32 22.79,-4.32 10.92,0 18.57,1.35 23.3,4.13 4.72,2.69 7,7.4 7,13.92l0 4.23 -22.47 0zm60.25 -2.11l0 29.09c0,2.5 0.49,4.03 1.3,4.71 0.81,0.67 2.44,1.05 4.72,1.05 2.28,0 3.91,-0.38 4.73,-1.05 0.81,-0.77 1.3,-2.5 1.3,-5.19l0 -1.44 0 -28.62c0,-2.69 -0.49,-4.32 -1.3,-5.09 -0.82,-0.67 -2.44,-1.05 -4.73,-1.05 -2.28,0 -3.91,0.29 -4.72,0.96 -0.81,0.67 -1.3,2.21 -1.3,4.7l0 1.92zm-24.92 1.92c0,-8.06 2.44,-13.82 7.17,-17.09 4.72,-3.26 12.54,-4.9 23.77,-4.9 11.24,0 19.21,1.64 23.94,4.9 4.71,3.27 7,9.03 7,17.09l0 23.33c0,8.07 -2.28,13.73 -7,17.09 -4.73,3.26 -12.7,4.9 -23.94,4.9 -11.24,0 -19.06,-1.63 -23.77,-4.9 -4.72,-3.36 -7.17,-9.03 -7.17,-17.09l0 -23.33zm75.71 -21.13l24.59 0 0 53.11 25.41 0 0 12.48 -49.99 0 0 -65.59zm81.74 46.39l0 1.92c0,2.5 0.49,4.03 1.3,4.71 0.82,0.67 2.44,1.05 4.73,1.05 2.44,0 4.06,-0.38 4.89,-1.15 0.81,-0.76 1.3,-2.69 1.3,-5.76l0 -0.76 0 -46.39 24.58 0 0 44.46c0,8.07 -2.28,13.73 -7,17.09 -4.73,3.26 -12.7,4.9 -23.77,4.9 -11.08,0 -18.9,-1.63 -23.61,-4.9 -4.72,-3.26 -7.01,-9.03 -7.01,-17.09l0 -44.46 24.59 0 0 46.39zm46.41 -34.38l0 -12.01 53.25 0 0 12.01 -14.32 0 0 53.58 -24.6 0 0 -53.58 -14.32 0zm63.34 -12.01l24.58 0 0 65.59 -24.58 0 0 -65.59zm64.16 19.21l0 29.09c0,2.5 0.49,4.03 1.3,4.71 0.81,0.67 2.44,1.05 4.72,1.05 2.28,0 3.91,-0.38 4.73,-1.05 0.81,-0.77 1.3,-2.5 1.3,-5.19l0 -1.44 0 -28.62c0,-2.69 -0.49,-4.32 -1.3,-5.09 -0.82,-0.67 -2.44,-1.05 -4.73,-1.05 -2.28,0 -3.91,0.29 -4.72,0.96 -0.81,0.67 -1.3,2.21 -1.3,4.7l0 1.92zm-24.92 1.92c0,-8.06 2.44,-13.82 7.17,-17.09 4.72,-3.26 12.54,-4.9 23.77,-4.9 11.24,0 19.21,1.64 23.94,4.9 4.72,3.27 7,9.03 7,17.09l0 23.33c0,8.07 -2.28,13.73 -7,17.09 -4.72,3.26 -12.7,4.9 -23.94,4.9 -11.24,0 -19.06,-1.63 -23.77,-4.9 -4.72,-3.36 -7.17,-9.03 -7.17,-17.09l0 -23.33zm75.71 -21.13l22.8 0c2.44,2.21 4.72,4.8 7,7.69 2.28,2.88 4.56,6.15 6.84,9.6l0 -17.29 24.43 0 0 65.59 -24.43 0 0 -12.86c0,-5.57 -0.98,-10.85 -2.93,-16.04 -2.11,-5.09 -5.04,-9.98 -9.12,-14.59l0 43.5 -24.59 0 0 -65.59zm113 21.32l0 -3.74c0,-2.02 -0.65,-3.55 -1.78,-4.51 -1.31,-0.96 -3.11,-1.44 -5.7,-1.44 -1.96,0 -3.42,0.29 -4.56,0.96 -1.15,0.67 -1.8,1.54 -1.8,2.59 0,2.02 5.86,5.85 17.59,11.33 2.28,1.06 4.06,1.82 5.2,2.4 5.05,2.3 8.79,5 11.08,7.78 2.11,2.88 3.26,6.43 3.26,10.75 0,6.34 -2.61,11.14 -7.65,14.31 -5.22,3.07 -12.87,4.7 -23.28,4.7 -10.76,0 -18.57,-1.54 -23.61,-4.61 -5.06,-2.98 -7.5,-7.87 -7.5,-14.41l0 -7.96 24.91 0 0 7.3c0,2.59 0.49,4.41 1.62,5.57 0.98,1.15 2.62,1.73 4.89,1.73 1.8,0 3.26,-0.48 4.4,-1.34 0.98,-0.77 1.46,-2.02 1.46,-3.56 0,-2.11 -0.8,-4.03 -2.27,-5.76 -1.64,-1.63 -4.88,-3.75 -9.94,-6.34 -0.8,-0.48 -2.11,-1.06 -3.74,-1.92 -14.17,-7.01 -21.16,-13.54 -21.16,-19.59 0,-5.28 2.6,-9.41 7.97,-12.2 5.37,-2.88 12.87,-4.32 22.79,-4.32 10.93,0 18.57,1.35 23.3,4.13 4.72,2.69 7,7.4 7,13.92l0 4.23 -22.48 0z"/>
   <path class="fil2" d="M1363.92 1502.6l329.64 0c1.27,0 2.29,1.03 2.29,2.29l0 13.6c0,1.26 -1.02,2.3 -2.29,2.3l-329.64 0c-1.26,0 -2.3,-1.04 -2.3,-2.3l0 -13.6c0,-1.26 1.04,-2.29 2.3,-2.29z"/>
   <path class="fil2" d="M1363.92 1476.16l329.64 0c1.27,0 2.29,1.03 2.29,2.29l0 13.6c0,1.27 -1.02,2.3 -2.29,2.3l-329.64 0c-1.26,0 -2.3,-1.03 -2.3,-2.3l0 -13.6c0,-1.26 1.04,-2.29 2.3,-2.29z"/>
   <path class="fil2" d="M382.8 1502.6l329.64 0c1.27,0 2.29,1.03 2.29,2.29l0 13.6c0,1.26 -1.02,2.3 -2.29,2.3l-329.64 0c-1.26,0 -2.29,-1.04 -2.29,-2.3l0 -13.6c0,-1.26 1.04,-2.29 2.29,-2.29z"/>
   <path class="fil2" d="M382.8 1476.16l329.64 0c1.27,0 2.29,1.03 2.29,2.29l0 13.6c0,1.27 -1.02,2.3 -2.29,2.3l-329.64 0c-1.26,0 -2.29,-1.03 -2.29,-2.3l0 -13.6c0,-1.26 1.04,-2.29 2.29,-2.29z"/>
  </g>
 </g>
</svg>
